<?xml version="1.0" standalone="no"?>
<!DOCTYPE svg PUBLIC "-//W3C//DTD SVG 20010904//EN"
 "http://www.w3.org/TR/2001/REC-SVG-20010904/DTD/svg10.dtd">
<svg version="1.0" xmlns="http://www.w3.org/2000/svg"
 width="260.000000pt" height="260.000000pt" viewBox="0 0 260.000000 260.000000"
 preserveAspectRatio="xMidYMid meet">
<metadata>
Created by potrace 1.11, written by Peter Selinger 2001-2013
</metadata>
<g transform="translate(0.000000,260.000000) scale(0.100000,-0.100000)"
fill="#000000" stroke="none">
<path d="M1950 2531 c-81 -22 -174 -68 -259 -128 -36 -26 -68 -49 -71 -53 -3
-3 -32 -28 -64 -55 -71 -59 -104 -91 -347 -328 -103 -100 -200 -192 -216 -204
-147 -109 -304 -149 -457 -117 -75 16 -183 62 -233 100 -17 13 -34 24 -38 24
-6 0 -66 53 -102 90 -20 21 -22 22 -16 5 21 -50 58 -115 66 -115 4 0 6 -4 3
-9 -3 -5 1 -14 9 -21 8 -7 12 -16 9 -21 -3 -5 -1 -9 4 -9 5 0 17 -18 27 -40
10 -22 22 -40 27 -40 4 0 8 -6 8 -14 0 -16 81 -155 124 -211 140 -185 324
-229 540 -130 54 25 213 126 256 164 14 12 47 41 75 64 55 47 219 210 468 466
92 95 167 169 167 164 0 -4 -16 -31 -36 -58 -19 -28 -61 -93 -92 -145 -31 -52
-61 -98 -67 -102 -5 -4 -6 -8 -2 -8 4 0 3 -6 -3 -12 -6 -7 -46 -65 -90 -128
-43 -63 -87 -124 -97 -135 -10 -11 -36 -43 -58 -70 -22 -28 -76 -86 -120 -130
-220 -219 -437 -323 -650 -313 l-84 4 22 -40 c12 -23 24 -43 27 -46 3 -3 11
-17 19 -32 8 -15 22 -37 33 -47 10 -11 18 -23 18 -26 0 -8 49 -63 117 -131
196 -197 425 -226 662 -85 29 17 60 38 68 46 8 9 24 20 35 26 20 11 20 11 2
-15 -11 -14 -22 -26 -26 -26 -5 0 -8 -6 -8 -13 0 -19 -125 -146 -181 -185 -26
-17 -69 -40 -95 -50 -98 -38 -243 -11 -347 65 -52 38 -52 38 -30 8 12 -17 36
-58 54 -90 18 -33 40 -71 51 -84 10 -13 18 -30 18 -37 0 -8 4 -14 9 -14 5 0
11 -8 15 -17 6 -19 31 -63 60 -108 20 -31 90 -65 120 -59 79 15 94 25 135 94
26 44 61 112 61 119 0 2 -10 -5 -23 -17 -50 -47 -152 -64 -232 -37 l-40 13 41
1 c55 1 111 22 179 65 60 39 175 153 175 174 0 7 7 15 15 18 8 4 15 12 15 19
0 7 7 16 16 19 8 3 12 10 9 16 -3 5 -2 10 3 10 5 0 15 14 22 30 7 17 16 30 21
30 5 0 9 4 9 9 0 5 47 91 105 191 58 100 105 185 105 187 0 3 9 16 20 30 11
14 17 29 14 34 -3 5 -1 9 4 9 5 0 20 21 33 47 13 26 29 53 35 59 6 7 17 26 24
43 7 17 16 31 21 31 5 0 8 3 7 8 -2 4 28 60 65 124 37 65 67 122 67 128 0 5 4
10 8 10 5 0 18 19 28 42 10 23 28 56 40 73 11 17 37 60 56 96 20 35 59 104 87
153 28 49 51 90 51 92 0 8 65 110 74 116 6 4 7 8 2 8 -6 0 -5 5 2 12 39 39
-33 35 -122 -7 -58 -27 -212 -169 -287 -264 -19 -24 -39 -48 -44 -55 -6 -6
-28 -36 -50 -66 -50 -69 -56 -77 -77 -101 -10 -10 -15 -19 -10 -19 4 0 2 -4
-3 -8 -6 -4 -39 -47 -74 -95 -222 -310 -415 -498 -594 -580 -33 -15 -29 -9 41
61 44 42 102 107 131 144 61 80 181 264 181 278 0 6 4 10 8 10 4 0 13 12 20
28 6 15 23 45 36 67 14 22 33 56 43 75 11 19 40 72 66 117 26 45 47 87 47 92
0 5 4 11 9 13 5 2 11 10 13 18 2 8 5 17 9 20 3 3 27 43 54 90 26 47 52 87 57
88 4 2 8 8 8 14 0 18 110 157 188 236 42 44 109 104 148 134 l71 54 -32 23
c-18 12 -57 31 -86 43 -75 29 -239 34 -329 9z"/>
</g>
</svg>
